<svg width="28" height="28" viewBox="0 0 28 28" fill="none" xmlns="http://www.w3.org/2000/svg">
<path d="M14.001 1.75C13.5593 1.75 13.1176 2.04703 13.126 2.63867V5.37646L11.5179 3.7666C11.174 3.41284 10.6048 3.41273 10.2652 3.7631C9.92584 4.11365 9.93467 4.66725 10.2806 5.00383C11.2291 5.95231 12.1775 6.90077 13.126 7.84928V12.4858L9.11001 10.1684C8.76277 8.87241 8.41649 7.5764 8.06927 6.28043C7.95074 5.81258 7.47616 5.52946 7.00289 5.64812C6.52968 5.76702 6.2447 6.25864 6.37913 6.73332L6.96871 8.93107L4.59671 7.56218C4.18209 7.31516 3.64611 7.44946 3.39533 7.86809C3.14478 8.28683 3.29104 8.83575 3.72174 9.07634L6.09203 10.4452L3.89605 11.0331C3.41776 11.154 3.13353 11.6473 3.26716 12.1166C3.40103 12.5858 3.8845 12.8546 4.34892 12.7233C5.64417 12.3762 6.93977 12.0296 8.23504 11.6825L12.251 14.0016L8.23504 16.319C6.93977 15.9719 5.64417 15.6253 4.34892 15.2782C3.8845 15.147 3.40103 15.4157 3.26716 15.8849C3.13353 16.3542 3.41776 16.8475 3.89605 16.9684L6.09374 17.5563L3.72174 18.9252C3.29104 19.1658 3.14478 19.7147 3.39533 20.1335C3.64611 20.5521 4.18209 20.6864 4.59671 20.4394L6.96871 19.0705L6.37913 21.2682C6.2447 21.7429 6.52967 22.2345 7.00289 22.3534C7.47616 22.4721 7.95074 22.189 8.06927 21.7211C8.41649 20.4252 8.76276 19.1291 9.11001 17.8332L13.126 15.5158V20.1523C12.1775 21.1008 11.2291 22.0492 10.2806 22.9977C9.93469 23.3343 9.92586 23.8879 10.2652 24.2384C10.6048 24.5889 11.174 24.5888 11.5179 24.2349L13.126 22.6268V25.3629C13.119 25.8562 13.5199 26.2575 14.0078 26.2498C14.4957 26.242 14.8825 25.8455 14.8759 25.3629V22.6302L16.4823 24.2349C16.8262 24.5887 17.3954 24.5888 17.735 24.2384C18.0744 23.8879 18.0655 23.3343 17.7196 22.9977C16.7717 22.0498 15.8238 21.1019 14.8759 20.154V15.5175L18.8902 17.8349C19.2373 19.1303 19.5856 20.4257 19.9327 21.7211C20.0512 22.189 20.5258 22.4721 20.999 22.3534C21.4723 22.2345 21.7572 21.7429 21.6228 21.2682L21.0349 19.0722L23.4035 20.4394C24.4199 21.0455 25.3116 19.5007 24.2785 18.9235L21.9099 17.5563L24.1042 16.9684C24.5825 16.8475 24.8667 16.3542 24.7331 15.8849C24.5992 15.4157 24.1157 15.147 23.6513 15.2782C22.3566 15.6252 21.0616 15.9721 19.7669 16.319L15.7509 14.0016L19.7669 11.6825C21.0616 12.0295 22.3566 12.3764 23.6513 12.7233C24.1157 12.8546 24.5992 12.5858 24.7331 12.1166C24.8667 11.6473 24.5825 11.154 24.1042 11.0331L21.9099 10.4452L24.2785 9.07805C25.3116 8.50088 24.4199 6.95603 23.4035 7.56218L21.0332 8.93107L21.6228 6.73332C21.7572 6.25864 21.4722 5.76702 20.999 5.64812C20.5258 5.52946 20.0512 5.81259 19.9327 6.28043C19.5854 7.57641 19.2375 8.8724 18.8902 10.1684L14.8759 12.4858V7.84758C15.8238 6.89963 16.7717 5.95174 17.7196 5.00383C18.0655 4.66725 18.0744 4.11365 17.735 3.7631C17.3954 3.41265 16.8262 3.41276 16.4823 3.7666L14.8759 5.37304V2.63867C14.8847 2.04703 14.4426 1.75 14.001 1.75Z" fill="white"/>
</svg>
