<svg width="24" height="24" viewBox="0 0 24 24" fill="none" xmlns="http://www.w3.org/2000/svg">
<mask id="mask0_192_501" style="mask-type:luminance" maskUnits="userSpaceOnUse" x="0" y="0" width="24" height="24">
<path d="M0 1.90735e-06H24V24H0V1.90735e-06Z" fill="white"/>
</mask>
<g mask="url(#mask0_192_501)">
<path d="M20.5167 14.781C20.5167 19.4847 16.7036 23.2969 12 23.2969C7.29625 23.2969 3.48315 19.4847 3.48315 14.781C3.48315 13.1631 3.93409 11.6505 4.71803 10.3626C4.71803 10.3626 5.80239 12.6771 7.66567 11.929C8.39814 11.6349 9.23228 10.8094 8.44581 9.44803C7.59761 7.97981 8.09701 6.01383 9.91698 5.11252C12.041 4.06055 11.9887 1.299 11.9887 1.299C11.9887 1.299 15.3302 3.38395 14.1601 6.10664C13.4848 7.67803 13.4042 9.58275 14.8085 10.004C16.4896 10.5083 17.3769 8.17631 17.3769 8.17631C19.2927 9.73748 20.5167 12.1163 20.5167 14.781Z" stroke="#5D627E" stroke-width="2" stroke-miterlimit="10"/>
<path d="M15.5869 19.7112C15.5869 20.7017 15.1852 21.598 14.5362 22.247C13.8872 22.896 12.9902 23.2969 11.9997 23.2969C10.0194 23.2969 8.41391 21.6922 8.41321 19.7119V19.7105C8.40402 18.9637 8.56551 18.081 9.01471 17.0565L10.4814 17.4851C10.5352 14.6496 13.1716 13.6513 13.1716 13.6513C13.2665 14.5844 13.5074 15.4871 14.0069 16.3033C14.3704 16.8963 14.714 17.4043 15.1115 17.9732C15.4558 18.4671 15.5897 19.1189 15.5869 19.7112Z" stroke="#5D627E" stroke-width="2" stroke-miterlimit="10"/>
</g>
</svg>
