<svg width="24" height="24" viewBox="0 0 24 24" fill="none" xmlns="http://www.w3.org/2000/svg">
<g clip-path="url(#clip0_192_406)">
<path d="M21.5639 3.19918L18.3647 0L15.1655 3.19918L16.4907 4.52426L17.4277 3.58718V3.88107C17.4277 6.10855 16.1901 8.11111 14.1978 9.10726C12.915 9.74862 11.8385 10.7325 11.0844 11.9525C10.3304 13.1725 9.93188 14.5754 9.93188 16.0096V16.5042H11.8058V16.0096C11.8058 13.7821 13.0435 11.7795 15.0358 10.7834C16.3186 10.142 17.3951 9.15814 18.1492 7.93814C18.9031 6.71815 19.3017 5.31526 19.3017 3.88107V3.58718L20.2387 4.52426L21.5639 3.19918Z" fill="#5D627E"/>
<path d="M16.3627 12.1958C17.009 13.5011 17.4277 14.688 17.4277 15.5672C17.4277 19.1838 14.4854 22.1261 10.8689 22.1261C7.2523 22.1261 4.31 19.1838 4.31 15.5672C4.31 12.7732 8.53695 6.87207 10.8689 3.93538C11.6011 4.85756 12.5203 6.07212 13.4367 7.39097C14.0137 7.08687 14.4935 6.65684 14.8496 6.14361C13.2959 3.92746 12.1309 2.5018 10.8689 0.987549C9.49965 2.63054 8.06977 4.3886 6.34559 6.92988C3.75137 10.7533 2.43604 13.6594 2.43604 15.5672C2.43604 20.2171 6.219 24.0001 10.8689 24.0001C15.5187 24.0001 19.3017 20.2171 19.3017 15.5672C19.3017 14.4276 18.832 12.9316 17.9012 11.0969C17.4273 11.5117 16.9124 11.8799 16.3627 12.1958Z" fill="#5D627E"/>
</g>
<defs>
<clipPath id="clip0_192_406">
<rect width="24" height="24" fill="white"/>
</clipPath>
</defs>
</svg>
