<svg width="28" height="28" viewBox="0 0 28 28" fill="none" xmlns="http://www.w3.org/2000/svg">
<g clip-path="url(#clip0_192_1311)">
<path d="M9.42348 16.0018L16.0021 9.42323C15.1234 8.42512 13.8564 7.85516 12.5266 7.85965C9.95045 7.8626 7.86284 9.95026 7.85989 12.5263C7.85535 13.8561 8.42537 15.1231 9.42348 16.0018Z" fill="#5D627E"/>
<path d="M0.838438 27.3655L27.3651 0.838902C27.557 0.647111 27.5571 0.33599 27.3653 0.144035C27.1735 -0.0479205 26.8624 -0.0480298 26.6704 0.143816L0.143843 26.6704C-0.0479478 26.8623 -0.0479478 27.1732 0.143843 27.365C0.338205 27.5504 0.643857 27.5507 0.838438 27.3655Z" fill="#5D627E"/>
<path d="M12.779 4.52152H12.7976C13.0468 4.51342 13.2504 4.31999 13.2711 4.07155L13.5659 0.534689C13.5773 0.397478 13.5306 0.261798 13.4372 0.160681C13.3438 0.0595637 13.2123 0.00225119 13.0746 0.00268869H12.468C12.3303 0.0021965 12.1988 0.059509 12.1054 0.160681C12.012 0.261798 11.9654 0.397532 11.9768 0.534689L12.2715 4.07401C12.2946 4.33449 12.5177 4.5312 12.779 4.52152Z" fill="#5D627E"/>
<path d="M0.532008 13.5658L4.05509 13.2711C4.31037 13.2498 4.50642 13.036 4.50555 12.7799V12.7308C4.50631 12.4736 4.30856 12.2594 4.05213 12.2396L0.528562 11.9704C0.391953 11.96 0.257203 12.0071 0.156797 12.1004C0.0564451 12.1937 -0.000429912 12.3246 7.58806e-06 12.4617V13.0737C-0.000758037 13.2115 0.0564451 13.3434 0.157617 13.437C0.258789 13.5305 0.394633 13.5772 0.532008 13.5658Z" fill="#5D627E"/>
<path d="M7.98994 5.4864C8.13913 5.70122 8.43045 5.76148 8.65259 5.62345L8.66829 5.61361C8.8802 5.48203 8.95988 5.21247 8.85346 4.98678L7.33949 1.77465C7.28081 1.65106 7.17324 1.55754 7.0427 1.51664C6.91216 1.47573 6.77047 1.49104 6.65174 1.55902L6.12516 1.86308C6.00616 1.93172 5.92139 2.04705 5.89131 2.18109C5.86123 2.31513 5.88869 2.45562 5.96694 2.5685L7.98994 5.4864Z" fill="#5D627E"/>
<path d="M5.5936 16.8713C5.46492 16.6488 5.18651 16.5632 4.95502 16.6748L1.76843 18.2025C1.64539 18.2617 1.55253 18.3695 1.51217 18.5C1.47181 18.6305 1.48761 18.7719 1.55575 18.8903L1.86178 19.4203C1.93042 19.5393 2.04575 19.6241 2.17979 19.6541C2.31383 19.6842 2.45432 19.6568 2.5672 19.5785L5.47182 17.5645C5.68143 17.4187 5.74438 17.1366 5.61674 16.9155L5.5936 16.8713Z" fill="#5D627E"/>
<path d="M18.8948 1.55915C18.7758 1.49036 18.6335 1.47455 18.5023 1.51551C18.3712 1.55647 18.2632 1.65054 18.2046 1.77479L16.6906 4.9874C16.579 5.22393 16.6723 5.50639 16.9028 5.62993L16.9195 5.63879C17.1392 5.75642 17.4124 5.69074 17.5546 5.48599L19.5795 2.56857C19.6577 2.4557 19.6852 2.31521 19.6551 2.18117C19.625 2.04713 19.5402 1.93179 19.4212 1.86316L18.8948 1.55915Z" fill="#5D627E"/>
<path d="M5.48467 7.95396L2.56824 5.95907C2.45531 5.8818 2.3152 5.85517 2.18176 5.88557C2.04832 5.91598 1.93364 6.00063 1.86528 6.11925L1.55925 6.64928C1.49133 6.76801 1.47596 6.9097 1.51687 7.04024C1.55777 7.17078 1.65129 7.27835 1.77488 7.33703L4.97328 8.84411C5.20379 8.95332 5.47947 8.86795 5.60793 8.64762L5.63249 8.60491C5.76084 8.38255 5.69641 8.09894 5.48467 7.95396Z" fill="#5D627E"/>
<path d="M26.7476 10.802L24.0164 11.5339L25.4852 9.3381C25.6913 9.04333 25.7222 8.6603 25.566 8.33632C25.4099 8.01235 25.091 7.79787 24.7321 7.77539C24.3731 7.75291 24.03 7.92595 23.8347 8.22793L21.0936 12.315L15.8816 13.7101L13.7153 15.8765L12.3152 21.0934L8.22818 23.8345C7.90181 24.0511 7.73337 24.4394 7.79812 24.8257C7.86287 25.212 8.14872 25.5241 8.52788 25.6225C8.80531 25.6943 9.10019 25.6442 9.33841 25.485L11.5342 24.0162L10.8023 26.7474C10.7102 27.0905 10.808 27.4567 11.0591 27.7081C11.3102 27.9594 11.6763 28.0577 12.0195 27.966C12.3627 27.8742 12.6309 27.6063 12.723 27.2632L13.4549 24.532L14.6192 26.8997C14.7448 27.159 14.9785 27.3495 15.2577 27.4204C15.4898 27.4899 15.7397 27.467 15.9553 27.3565C16.4466 27.1127 16.6485 26.5178 16.4072 26.0253L14.236 21.6091L15.4985 16.9031L18.942 20.3467L19.2711 25.259C19.3155 25.8018 19.7881 26.208 20.3314 26.1703C20.8747 26.1327 21.2867 25.6652 21.2557 25.1215L21.0789 22.4885L23.0782 24.4878C23.4675 24.8771 24.0987 24.8771 24.4881 24.4878C24.8774 24.0985 24.8774 23.4673 24.4881 23.0779L22.4887 21.0786L25.1217 21.2555C25.6654 21.2864 26.133 20.8744 26.1706 20.3311C26.2083 19.7879 25.8021 19.3152 25.2593 19.2709L20.3469 18.9418L16.9034 15.4982L21.6094 14.2358L26.0256 16.407C26.0832 16.4371 26.1442 16.4602 26.2073 16.4758C26.7024 16.6068 27.2161 16.341 27.395 15.8612C27.5739 15.3814 27.3599 14.8441 26.9 14.619L24.5322 13.4548L27.2635 12.7228C27.6066 12.6307 27.8745 12.3625 27.9662 12.0193C28.058 11.6761 27.9597 11.31 27.7083 11.0589C27.4569 10.8077 27.0907 10.7098 26.7476 10.802Z" fill="#5D627E"/>
</g>
<defs>
<clipPath id="clip0_192_1311">
<rect width="28" height="28" fill="white"/>
</clipPath>
</defs>
</svg>
